<svg width="196" height="252" viewBox="0 0 196 252" fill="none" xmlns="http://www.w3.org/2000/svg">
<path d="M37.125 219.125C30 217.25 26.8125 212.25 24.9375 200.125C24.625 197.938 24.4375 194 24.3125 187.562C24.125 178.312 24.125 178.25 23.5 178.25C23.1875 178.25 20.6875 178.562 18.0625 179C9.4375 180.312 7.6875 180 4.625 176.75C2.75 174.688 1.6875 172.688 1.5 170.75C1.375 169.062 1.75 168.125 2.8125 167.875C3.3125 167.75 4.0625 166.938 5 165.5C5.8125 164.375 7.8125 161.688 9.4375 159.625C11.0625 157.5 13 154.938 13.8125 153.812C15.5625 151.375 16.375 151.188 18 153C20.1875 155.438 20.1875 157.25 17.75 162.312C17 163.875 16.4375 165.125 16.4375 165.125C16.4375 165.188 18.3125 165 20.5625 164.75L24.6875 164.25L24.875 162.938C25 162.188 25.375 159.438 25.6875 156.75C26.625 149.75 28.1875 144 29.6875 142.188C31.5625 139.875 38.25 141.125 41.125 144.375C41.875 145.188 42.25 145.938 42.375 146.938C42.6875 149 42.3125 154.75 41.625 158.75C41.3125 160.625 41 162.375 41 162.625C41 162.938 41.9375 163 46.8125 162.812C50 162.688 54.375 162.5 56.5 162.312C60.25 162.062 60.3125 162.062 61.5625 162.812C63.5625 163.938 65.5 166.688 66 169.125C66.375 170.75 65.875 171.188 63 171.875C58.625 172.875 57.375 173.062 47.9375 174.438C42.9375 175.188 38.8125 175.812 38.75 175.875C38.6875 175.938 38.4375 177.75 38.1875 179.875C36.375 195.25 37.0625 208.75 39.75 213.812C40.4375 215.062 40.75 215.312 42.25 215.812C45.1875 216.875 46.0625 218.25 44.3125 219.125C43.1875 219.75 39.375 219.688 37.125 219.125ZM99.375 146.5C100.062 146.5 100.938 146.5 101.938 146.562C106.875 146.75 112.562 147.688 114.562 148.688C115.125 149 116.312 150 117.25 150.938C118.188 151.812 120.062 153.312 121.438 154.188C131.875 160.688 136.438 169.812 134.5 180.062C132.562 190.188 124.25 201.062 112.875 208.5C108.125 211.625 101.25 214.562 96.4375 215.562C93.5 216.125 88.5 216.375 86.1875 216C80.125 215.062 73.5 211.125 69.1875 205.938C67.0625 203.438 65 199.312 64.3125 196.312C63.75 193.562 63.75 188.312 64.3125 185.125C65.75 177.688 70.1875 168 75.5 161C77.625 158.125 81.6875 154.062 84.375 152C86.9375 150.062 91.75 147.75 94.75 147C96.4375 146.562 97.3125 146.438 99.375 146.5ZM104.625 155.875C104.062 155.875 103.5 156.25 101.875 157.438C92 164.562 83.9375 176.688 80.6875 189.438C79.25 194.875 78.75 201.938 79.625 204.062C79.875 204.75 80.75 204.875 86.1875 204.75C90.4375 204.688 91.375 204.562 94.4375 203.75C105 200.938 113.375 195.312 119.938 186.625C125.5 179.188 127.5 171.5 125.312 165.812C123.5 161.125 115.312 156.062 109.562 156C108.5 156 107.375 156.062 107.062 156.188C106.688 156.312 105.938 156.25 105.375 156.062C105.062 155.938 104.812 155.875 104.625 155.875ZM103.812 172.812C104.25 172.812 105.188 173.125 105.812 173.438C107.062 174.062 108.812 175.875 108.812 176.562C108.812 176.75 107.438 178.25 105.688 179.875C103.938 181.438 101.875 183.688 101 184.875C100.188 186 99.3125 186.938 99.0625 186.938C98.875 186.938 98.5 187 98.3125 187.062C98.0625 187.125 97.375 187 96.6875 186.812C94.0625 186 91 182.938 91.1875 181.375C91.375 180.188 102.188 172.812 103.812 172.812Z" fill="#9122FF"/>
<path d="M3.5 34.375C4.6875 34.3125 6.4375 34.5 9.1875 34.6875C29.0625 36.375 39.5 37.125 45.875 37.3125C53.5 37.5 54.6875 37.6875 57.1875 39.4375C60 41.3125 60 43.1875 57.125 57.1875C55.875 63.5 55 68.625 55 69.75C55 70.0625 55 70.3125 54.9375 70.5625C55.3125 71.5625 55.5625 73.9375 56.25 80.9375C56.9375 88.1875 57.6875 94.75 58.25 99.125C59.0625 100.312 59.1875 100.812 59 101.625C58.9375 101.812 58.8125 102 58.6875 102.188C58.875 103.375 59 104.25 59.125 104.562C59.4375 105.438 59.25 105.812 57.8125 107.375C56.0625 109.25 52.75 110.812 51.25 110.438C50.8125 110.312 50.25 109.5 49.625 108C39.25 114.188 30.625 119.562 29.5 120.625C28.8125 121.25 28.375 121.25 26.4375 120.625C24 119.812 21.125 117.5 20.8125 116C20.75 115.5 21.3125 114.625 22.5625 113.312C21 113.562 18.625 113.375 17 112.75C16.125 112.438 15.1875 111.812 14.875 111.375C13.75 109.625 11.75 99.125 10.9375 91C10.25 83.5 9.8125 68.8125 9.875 57.25L10 46.9375L8.4375 46.5C7.625 46.25 6.3125 45.625 5.625 45.125C3 43.1875 0.5625 38.375 1 35.9375C1.25 34.8125 1.5 34.375 3.5 34.375ZM43.9375 47.25C43.6875 47.3125 43.375 47.3125 42.875 47.375C41.9375 47.5 37.25 47.6875 32.375 47.8125L23.5625 48L23.375 59.125C23.25 65.3125 23.0625 71.5 22.9375 72.875C22.8125 74.4375 22.875 75.4375 23 75.3125C23.1875 75.25 24.25 74.5625 25.4375 73.875C28.4375 72 35.4375 68.625 39.4375 67.0625L42.75 65.75L42.8125 61.5625C42.875 57.875 43.75 49.75 44.375 47.75C44.5 47.375 44.4375 47.25 43.9375 47.25ZM42.5625 77.375C34.1875 80.8125 29.125 83.25 24.25 86.1875L22.4375 87.25L22.625 93.75C22.875 100.938 23.25 104.938 24 109.375L24.3125 111.562C26.9375 109.125 31.0625 105.75 36.6875 101.438C41.1875 97.9375 44.0625 95.875 45.9375 94.6875C45.5625 93.1875 45.1875 91.625 44.8125 89.875C43.3125 83.0625 42.625 79.3125 42.5625 77.375ZM80.875 117.5C77.6875 117.188 77.4375 114 77.375 111.5C77.125 109.312 73.1875 110.062 72.1875 107.875C69 104.375 66.3125 99.6875 67.0625 94.8125C68.6875 91.625 73.5 95.4375 76.25 93.8125C76.1875 90.1875 76.125 86.5 76.125 82.8125C70.875 80.625 68.1875 74.5 68.3125 69C68.8125 65.9375 72.5 67.375 74.6875 67.3125C76.5 68 76.125 66.4375 76.125 65.1875C76.125 61.9375 76.125 58.75 76.125 55.5C70.875 54.5625 68.0625 49.0625 67.0625 44.25C65.6875 40.8125 68.5 38.5 71.625 40.125C73.0625 40.125 76.625 41.6875 76.375 39.1875C75.75 35.0625 80.625 34.5 83.5625 35.375C86.6875 36 89.4375 37.875 91.25 40.5C99.4375 40.0625 107.625 39.8125 115.75 38.5C119.25 38.8125 120.75 43.75 120.25 46.8125C117.625 49.4375 113.438 49.5625 110.062 50.625C103.438 52.1875 96.75 53.1875 90.0625 54.3125C89.625 58.875 89.25 63.4375 88.9375 68.0625C96.375 67.875 103.875 67.75 111.312 67.4375C114.125 69.6875 116.562 74.3125 115 77.8125C109.125 79.8125 102.812 80.375 96.6875 81.375C94 82.375 88.9375 81.125 87.8125 83.625C87.6875 87.25 87.5625 90.8125 87.4375 94.4375C97.875 93.4375 108.625 94 118.812 91.0625C122.938 88.3125 125.75 93.8125 126.438 97.1875C127.562 101 122.812 102.062 120.25 103.438C109.562 107.312 98.3125 109.125 87.0625 110.375C86.875 112.562 87 114.812 86.4375 116.938C84.75 118 82.6875 118.125 80.875 117.5ZM131.812 112.625C129.375 112.125 126.5 110.312 125.875 108.812C125.562 108.125 125.625 107.938 126.25 107C128.5 103.812 132.688 92.3125 135.25 82.125C138.125 70.875 139.75 59.375 139.312 53.375L139.125 50.9375L137.562 50.3125C133.25 48.5625 128.688 43.25 128.562 39.8125C128.5 38.875 128.625 38.5 129.188 38.125C130 37.4375 131.188 37.4375 134.812 38.125C144 39.875 159.75 40.1875 171.688 38.875C174.312 38.625 174.625 38.5 175.625 37.6875C177 36.5625 177.688 36.375 179.25 36.625C181.375 36.9375 182.875 37.5625 184.688 38.875C189.5 42.4375 189.938 45.9375 187 59C184.875 68.4375 183.875 73.3125 182.688 80.9375C180.625 93.75 180.188 97.4375 180.188 103.625L180.125 109.375L179.375 109.688C177.812 110.312 173.875 109.312 171.875 107.688C168.312 104.812 167.438 95.1875 169.125 75.5C169.625 69.8125 171.062 56.1875 171.625 51.9375C171.812 50.375 171.938 49.0625 171.938 49.0625C171.875 49.0625 170.375 49.25 168.562 49.5625C166.75 49.8125 163.375 50.1875 161.125 50.4375C158.938 50.625 157 50.875 156.938 50.9375C156.875 51 156.938 51.6875 157.125 52.5C157.875 55.9375 156.875 62.1875 153.625 73.5625C149.75 87.3125 144.5 100 140 106.562C137.875 109.688 135.688 112.062 134.562 112.562C133.562 112.938 133.438 112.938 131.812 112.625Z" fill="#F7E5E2"/>
</svg>
