<svg width="58" height="50" viewBox="0 0 58 50" fill="none" xmlns="http://www.w3.org/2000/svg">
<path d="M35.8123 10.3333C35.8123 10.3541 35.8123 10.3541 35.8123 10.375C35.2915 10.3541 34.7707 10.3333 34.2082 10.3333H18.1665L20.3957 8.12496C22.4373 6.06246 24.6873 4.16663 27.2915 4.16663C29.9165 4.16663 32.1665 6.06246 34.2082 8.12496L35.3748 9.29163C35.6665 9.56246 35.8123 9.93746 35.8123 10.3333Z" fill="white"/>
<path d="M43.4167 27.4375C44.2292 27.4375 44.875 26.7708 44.875 25.9375V24.1042C44.875 15.9167 42.375 13.4375 34.2083 13.4375H21.0833H15.7917C7.625 13.4375 5.125 15.9375 5.125 24.1042V25C5.125 25.8333 5.77083 26.4792 6.58333 26.4792C8.33333 26.4792 9.72917 27.8958 9.72917 29.625C9.72917 31.3542 8.33333 32.7917 6.58333 32.7917C5.77083 32.7917 5.125 33.4375 5.125 34.2708V35.1667C5.125 43.3542 7.625 45.8333 15.7917 45.8333H21.0625H34.1875C42.3542 45.8333 44.8542 43.3333 44.8542 35.1667C44.8542 34.3542 44.2083 33.6875 43.3958 33.6875C41.6458 33.6875 40.25 32.2917 40.25 30.5625C40.2708 28.8333 41.6667 27.4375 43.4167 27.4375ZM22.5417 39.2917C22.5417 40.1042 21.875 40.7708 21.0625 40.7708C20.25 40.7708 19.5833 40.1042 19.5833 39.2917V33.7083C19.5833 32.8958 20.25 32.2292 21.0625 32.2292C21.875 32.2292 22.5417 32.8958 22.5417 33.7083V39.2917ZM22.5417 25.5625C22.5417 26.375 21.875 27.0417 21.0625 27.0417C20.25 27.0417 19.5833 26.375 19.5833 25.5625V19.9792C19.5833 19.1667 20.25 18.5 21.0625 18.5C21.875 18.5 22.5417 19.1667 22.5417 19.9792V25.5625Z" fill="white"/>
<path d="M52.505 39.3017L38.9833 46.4184C35.775 48.11 32.2867 44.6917 33.9083 41.4484L35.7983 37.6684C36.3233 36.6184 36.3233 35.3817 35.7983 34.3317L33.9083 30.5517C32.2867 27.3084 35.775 23.9017 38.9833 25.5817L52.505 32.6984C55.165 34.0984 55.165 37.9017 52.505 39.3017Z" fill="#9122FF" stroke="white" stroke-width="1.5" stroke-linecap="round" stroke-linejoin="round"/>
</svg>
