<svg width="24" height="24" viewBox="0 0 24 24" fill="none" xmlns="http://www.w3.org/2000/svg">
<path d="M18.2413 3.38242L18.1618 7.60167C18.1505 8.18057 18.525 8.94872 19.0018 9.29383L21.8169 11.3868C23.6218 12.7227 23.3267 14.3592 21.1699 15.0271L17.5034 16.1515C16.8905 16.3408 16.2434 16.9976 16.0845 17.6099L15.2104 20.8828C14.518 23.4656 12.7926 23.7217 11.3623 21.4506L9.36449 18.2778C9.00125 17.6989 8.13855 17.2648 7.45746 17.2982L3.66611 17.4874C0.953128 17.621 0.181235 16.0847 1.95205 14.0586L4.19962 11.4981C4.61962 11.0194 4.81259 10.1288 4.61962 9.52761L3.46178 5.92065C2.79205 3.80546 3.9953 2.63654 6.1407 3.32676L9.48936 4.40662C10.0569 4.58474 10.9083 4.46228 11.385 4.11717L14.8813 1.64574C16.7769 0.320961 18.2867 1.10024 18.2413 3.38242Z" fill="white"/>
</svg>
