<svg width="129" height="30" viewBox="0 0 129 30" fill="none" xmlns="http://www.w3.org/2000/svg">
<path d="M10.976 26.32L0.608 19.28V1.808L5.728 5.968V16.56L10.752 19.92V6.224L16 2.512V19.984L21.216 16.496V5.808L26.464 1.744V19.152L15.872 26.32H10.976ZM27.637 3.6H40.149L44.853 8.72H33.333V11.12H37.557L41.941 16.208H33.333V21.008H39.925L44.597 26H27.637V3.6ZM46.0835 3.632H60.4515C61.6888 3.632 62.5635 4.26133 63.0755 5.52V12.24L59.9715 14.608L63.0755 16.432V26H52.7715V21.008H57.5715V17.488L51.5875 15.184V25.84L46.0835 29.2V3.632ZM51.5875 8.592V13.872L57.5715 10.96V8.592H51.5875ZM66.7543 3.632H77.4743L81.6023 8.944H70.0503V12.208H80.2263C81.3356 12.9973 81.8903 13.9787 81.8903 15.152V24.016C81.8903 24.8267 81.0689 25.424 79.4263 25.808H69.5063L64.8343 20.784H76.0983V17.232H67.0103C65.3676 17.232 64.5463 16.5387 64.5463 15.152V5.776C64.5463 4.64533 65.2823 3.93066 66.7543 3.632ZM88.9015 25.968H83.2695V3.92L88.9015 0.0159988V25.968ZM90.835 3.6H106.003L110.131 8.784H102.579V25.168L97.011 29.328V8.784H90.835V3.6ZM111.45 3.6H123.962L128.666 8.72H117.146V11.12H121.37L125.754 16.208H117.146V21.008H123.738L128.41 26H111.45V3.6Z" fill="white"/>
</svg>
